<mxfile host="65bd71144e">
    <diagram id="HTLxhx6txsBz0iBIC11k" name="Page-1">
        <mxGraphModel dx="1768" dy="773" grid="1" gridSize="10" guides="1" tooltips="1" connect="1" arrows="1" fold="1" page="1" pageScale="1" pageWidth="1100" pageHeight="850" math="0" shadow="0">
            <root>
                <mxCell id="0"/>
                <mxCell id="1" parent="0"/>
                <mxCell id="2" value="&lt;h3&gt;Konvertovati izraz A*(B+C*D)+E iz infiksne u postfiksnu notaciju. Objasniti postupak konverzije&lt;/h3&gt;" style="text;html=1;align=center;verticalAlign=middle;resizable=0;points=[];autosize=1;strokeColor=none;fillColor=none;" parent="1" vertex="1">
                    <mxGeometry x="150" width="660" height="60" as="geometry"/>
                </mxCell>
                <mxCell id="3" value="" style="shape=stencil(fZLLcoMwDEW/xluNLMkP1nn8R2YCxVMCGULS5u8DdaFxQ7yT5Xsky1eKN5f6cC4V4WXou8/yKxyHWvFWEYW2LvswjJHineJN1fXlR99d22M8nw+TcopO3W2q8B25ogB2E0V4jxkExJ/EPuqb0Gb1BJLRa1zqzcBSYb2BAWcTvfbgigzAgClADJR5kndgJAFYzz1XAefA+gQQApOZwRrwJgGMAJr3gBlfzAlgBay8BwTBUgI4AZ0Zml6+1cs81foMwDq1zWaNfrH5yflfYAz+1rAKTRO3+Pn+/9qOqbjyvHsA);fillColor=none;" vertex="1" parent="1">
                    <mxGeometry x="47.5" y="108" width="31.700000000000045" height="55.5" as="geometry"/>
                </mxCell>
                <mxCell id="4" value="" style="shape=stencil(fZPbDoMgDEC/htcGWhB4dtt/mMxNMqeLc7e/n4aZKQTeaj2H0JYyKu9NdasZ8vs49Jf65Y5jw2jHEF3X1IMbp4jRnlF56of6PPSP7ui/b9VMztG1f84nvL3HgfNZQv4JEgePt65b4WhAyoBXmOaVAqk3PILQad4goN3wCihzvimg2J5vgCjNWxPyAsGatCB41CFhQWVKsBgKqEGLtKBleCfSgBlB0VLjIkgN3KYFigSVbxNFVyoMmMy7EDyaw5TJDS5skhXZEuImrSbzM6bg/8xPrm39lqz/h2sxpfxK0f4L);fillColor=none;" vertex="1" parent="1">
                    <mxGeometry x="82" y="114" width="9.375" height="64.5" as="geometry"/>
                </mxCell>
                <mxCell id="6" value="" style="shape=stencil(lZLbDoIwDIafZrdNt+4A1x7ew8Qhi8gM4untBWeQQZjxruv+r13Xn9HqUu7Olgm8tI0/2rvbtyWjNRPC1aVtXNtFjDaMVoVv7KHx13ofzuddr+yjk7/1FR6B4wQoekrg85NBBMR3ahuIytUjIgeSEWAIiJb1BJoiPelk/aH7oOcgE/U55CbSq/T7Dai4vkzruQQTDyzSgFDAcfKlSYBy0PhPB6Ugi5cmNWizDGQcSEfAj5lxtoUZ0QVfUxWuqoInx/dTE3apYGDavAA=);fillColor=none;" vertex="1" parent="1">
                    <mxGeometry x="52.28571428571422" y="143.75" width="36.21428571428578" height="1.25" as="geometry"/>
                </mxCell>
                <mxCell id="7" value="" style="shape=stencil(lVbRUhsxDPyae92xJVuWnyn8BzOE5qYhYUJo4e/xcT2KnEM0bz7fSpZWK9kDXz1tbx83A4Wn0/Hwa/NnvDttB/4xEI377eY4ntpq4OuBr+4Px83P4+F5fzd/P95OyGn1cPg9eXiZ7QJCmIwovM4bzCj0vnMz43fj3sVniH6Nj2Ax+BSR69d4glj/ObrxEDRZfHH9M1I0eBGIi//7d8EXQcgX4DUtJ/5fPFqRHT7P8q2NTyceApXef3D57/wrIaVL+GkenHgykq2vBGTHv0ItP0mWjNb1xqhkBRpRvYQDis04VjdjqiAr6bpodp0hhdgDGOTgkyLYlD96bp3RAq4dnpwKSEIpXTzVyVeaYNgSFFyJlohgSxAVSS45gVoTewZt5lgDFkQnJCFkK7vE/gkB2hlUFKePJxnbquXWGl4ZGJytQYY6yhZF6QzEbbU2qWI3GxXMTq/lPulcl51Vg8p9SC2r4mip1mWYfxi07nDqEMPZhVMS1LkQapswNiYNqA6vKv0VNe14+j7j9ZsZ3DqObA5TkM5MaiNAbUifeFgfMgHRyq9RLU7WbdAX20K1oJgT2uLfq+F+3O3mR8fn//0ro23NLxS+fgM=);fillColor=none;" vertex="1" parent="1">
                    <mxGeometry x="127" y="115.875" width="44" height="50.79166666666663" as="geometry"/>
                </mxCell>
                <mxCell id="8" value="" style="shape=stencil(lZTLbsJADEW/JtursceZx5rS/0AilKiUoEBff99JUyiegqXuHOfYsu/YbvziuF0duobd8TQOz917vz5tG//QMPf7bTf2p2I1ftn4xWYYu6dxeN2v5+/DaiIn62V4mzJ8zHHBI4Upit3n7ImI6dvxOPO7fm/yLXJr8IQUFS8gvs+3CS0rnsHZ4AOczk8IzuAJkRTvIOE+LwHCFe+M/OKQ6vwW7wUpV3w29OGEoPX3YCN/kU+84gOC3OcpIOl+iSBWAIF1w5TgyZgIsC6oTNyP53YHEC2QLxNqvNhF78uAOpBRzx8+MLJRj8BXC1M88T8CJTl7bgdkBK1QLhoYO+YJ1OqAeJ7y2y1IvcTk7DGd1lKvWc6IRtexnAWqayLjsKSEqN85E7Kx+VclX4QNaFUTxfg9fJt+t5vv5vX/+lAW13xk/fIL);fillColor=none;" vertex="1" parent="1">
                    <mxGeometry x="200.375" y="127.75" width="40.125" height="54.625" as="geometry"/>
                </mxCell>
                <mxCell id="14" value="" style="shape=stencil(dZDdDsIgDIWfprektNHE6znfY8mYEBEWhk7fXkiNosa709N+/QPuFjvMBgiXnOLJrG7MFngPRC5Yk1wuCrgH7qaYzDHFSxglnodaWdU5XmuHm3AaUSFWjPAu1ss4COBdaICtVlp/1PNG0e4/8NO/GfkEinjvNznv5bw2/31PseQX3D8A);fillColor=none;" vertex="1" parent="1">
                    <mxGeometry x="268" y="135" width="6" height="17" as="geometry"/>
                </mxCell>
                <mxCell id="15" value="" style="shape=stencil(fZLNDoMgEISfhutm2UWxZ9u+h4lYSa0YtX9vXwlNKjZ4G4b52MAguJzaajCCcJpHdzVPW8+t4KMgsn1rRjsvSvBJcNm40VxGd+/rsB4qn/Tq5h7+hFfgEBA9RPjeGOcQ72y/iksNSFGeCIjSACPkKgIUQa7TgCq2EzINUqWBLAOOgZyBOQ1oBJIRUOxfutBAHAGH/QkS/551ZX2RRfxKaWzXhU7X+9sSFyt8AD59AA==);fillColor=none;" vertex="1" parent="1">
                    <mxGeometry x="265" y="139" width="23.5" height="7.5" as="geometry"/>
                </mxCell>
                <mxCell id="16" value="" style="shape=stencil(fZLdDoIwDIWfZrfN1rKxXaO+h4lDFhEI4t/bO5wow7C7rj3fmraHUXGp9p1lyC9D357s3R2GitGGIbqmsr0bfMRoy6go294e+/baHMK724/KMTq3t/GHR+BMDppGCvkzZDhw/k7sgr52zUwv+Lc+ATkosw7oDHId6VGAzNYBZUDHABFITAC+bGJAQ6bWAYkg8giQ6aHJgIiXpATwRAdUYBZL8j0TMwgJiBGgEbhMDD2tZNIbAZTQ/11tdsgP4IOfS0pX18Fk8/rSVT4VHEnbFw==);fillColor=none;" vertex="1" parent="1">
                    <mxGeometry x="272" y="130" width="15.333333333333485" height="26" as="geometry"/>
                </mxCell>
                <mxCell id="17" value="" style="shape=stencil(fZDNDoMgEISfZq8bWKzI2dr3MBELKRWD9u/tK6FJxcbeZof5NsuAqCfTjhqITXPwF/2w3WxAHIHIDkYHOy8KRAOi7n3Q5+BvQ5fmsY3JqK7+Hjc8E8eQsQgRe22MU4o7O6zinCPnWZ5LVId9oCAsZQYUCknsA2WFlcoAWaKiPyexnz+srA+yiG8DvXUuFbh+3za2WKlt0bwB);fillColor=none;" vertex="1" parent="1">
                    <mxGeometry x="275" y="136" width="15" height="13" as="geometry"/>
                </mxCell>
                <mxCell id="20" value="" style="shape=stencil(fVZdcxoxDPw197pjy/KHntP0f2QmUG5KIUNom/z7iNzcgXygt8Noba12JXtIT++7l7fNQOH9fDr+3vwfX8+7If0YiMbDbnMaz/o1pOchPW2Pp82v0/Hv4XX6/fZyibx8/Tn+u+zwMeFiQKkXFIXPaYUCQvte+TkB9uPhFhDBzQCiILMDIMRkT0ggcQGhGEAKiH5KTSwgIScXkC2AA1JxAWRJc0PyOKzKmguKl1LoSRdGcVIScDbxVYVxMmogq0KtiPFxfEGNJr5FJIcAgyzhliCOLVau0Hhvfy1ol09AJS8+BMu3IDt81QBdfJiN/iBebD6F0PLjeGVn9cqM4OS/0osZ2WuCPB+/NAH7AuS+QrpSg8OAUa1FY0WojiUYjQxA0JyMtCLZekhbwClRWQguCYEcAnXFeDHJfQnSnO51fy9eAnLu8mcnf8lgq7FOAXIKJA21m71tbrsHU2XVBlTnxr5/hMweWGzUEB1fSwVZV7C4Ksgy/ZdO8G3R6rzfTWt6V1SV3ke6khwhdL/aDSMdfw7psroPJEIcITKBrZVU/ORwYOqlVvGb1506/m2VbsS/PwB0AFkhVEsxV4h+XB8O23G/n94dt//3Dw1dmh4p6fkL);fillColor=none;" vertex="1" parent="1">
                    <mxGeometry x="334.625" y="116.5" width="41" height="62.25" as="geometry"/>
                </mxCell>
                <mxCell id="21" value="" style="shape=stencil(fVPLcsMgDPwarhqBDIJzmv5HZuLUTF0747ht8vfFpQ+Dx7oJsQvSaqXocOtO11YZvM3T+Np+xvPcKXpSxsSha6c4p0jRUdHhMk7tyzS+D+d8vp4W5BK9jR/LC/fMMxYQF5bBR85Y0OY78ZzxfRxWeEKwrsAbYNrHN5v3ETTu4x0C6wqPEt6B46qeRqiHGdAXeAeo9/GewZb1aw1e+CDY3+s/ggcM+wSNWEuUanJCz4EhmIJADNQIBF2L1HgIXuhag7GlKwKwYAvngUuCC6KPrKt/SJPRLBhp04Mn8IKuyQimVCmkjKCSByoHFxw0Qgubsa0m+UNIwf/iXWLf571d39eLmlJ5yen4BQ==);fillColor=none;" vertex="1" parent="1">
                    <mxGeometry x="412.5" y="122.57142857142856" width="6" height="27.928571428571445" as="geometry"/>
                </mxCell>
                <mxCell id="22" value="" style="shape=stencil(lZHdDoMgDIWfhtumtOLPtdvew0ScZE4Mur+3n4QlExdNdnco32kLR3A5ttWgBeE4OXvRD1NPreCDIDJ9q52ZZiX4KLhsrNNnZ299Hc5D5UmvrvbuOzyDDwHRmwhfq8Ip4J3pF3gBiv7ASa3bq12eC6Ai4jOQyTaf5JCmEU85SN42pAwyXogzUDsb5QgcT1D7T5b486WL0scyi28gjem6kOfyfh3gXArh8/EN);fillColor=none;" vertex="1" parent="1">
                    <mxGeometry x="410" y="133" width="28" height="4" as="geometry"/>
                </mxCell>
                <mxCell id="23" value="" style="shape=stencil(jZPbDoIwDIafZrdN1wIb16jvQSLKIoJBPL294IyHTRrvuu77t79rp7g41uWhUoTHoe921cWth1rxQhG5tq56N4yR4qXiYtP11bbvTu3arw/lRE7RvjtPJ1y9DgFxEhHefMKATR6Jlccb10o4Q07zOAN94wjGzuOaweiAf973kycd2tGQZ4IdDvkUrOAnyaLzNRjhgjQPBWMFWqjAUPSgKFqykSBh0ELH8qhlaQZWqEFjPBOvPv6rsAYoFUzFD4thq8fgPbQb1zR+5j/3wyEfU/6D8PIO);fillColor=none;" vertex="1" parent="1">
                    <mxGeometry x="420" y="125" width="12.5" height="25.5" as="geometry"/>
                </mxCell>
                <mxCell id="24" value="" style="shape=stencil(fZLdDoMgDIWfhtsGCiJcO/ceJuokc2LQ/b39IGSbmMhdOe3HadMSXi1DM3cE6bI6e+2epl0Hwk8E0UxD58zqI8Jrwqveuu7i7H1q43tuQmWIbvYRfnhFjgKlAUL6jgKjP+kcgdFMGwBB6wTQXmHH9YwCKxJAITCeMfDpMgGkznekQaUOEgEzDsI7yAQo8jMXAoRKAK6AZwCpQKYOKEDhMaAKoOnQjEGZcdis6UvsZ/DBf+u9Gcd4NNv8/kq8FC+M1x8=);fillColor=none;" vertex="1" parent="1">
                    <mxGeometry x="416" y="124.5" width="33.5" height="23.5" as="geometry"/>
                </mxCell>
                <mxCell id="25" value="" style="shape=stencil(fZTbbsIwDIafpre/4jgH55qx90CijGqMogI7vP3SVe1IUH2XpP9nuz41vLked5e2seZ6G/r39qvb344NvzTWdudjO3S3fGp42/Dm0A/t29Dfz/vpftmNyvH00X+OFr4nznu4OFLW/EwvBsb8PbxO+lN3ftQLoin0FkLr+rCYm/VkEJLiwNeAJRgNyPaoBAKiEpLzYFcA7CF+HWCBlDlyAeN1FSBQCfgcUlwHLMNIAYQAx+sAOfjSQ/RqSAIqsyoWRosIwqVeVPtm7oJZnyyCqq+qnAJYKZqd07HoBV7piqf/TQmixEMeMVV9qk+C9UhUu2AFeG6jFEFaZ9Mc8gI4RKUrggNXHgg+rAMxgMp/yGU2yiiIm6u6ALkTlZBS3i+lh5gQlMZ7SPtC5GlTiJzFehZyTEWt8+F/AR6602nan4/f64WZn6Zly9tf);fillColor=none;" vertex="1" parent="1">
                    <mxGeometry x="455.875" y="130" width="30.875" height="71.125" as="geometry"/>
                </mxCell>
                <mxCell id="26" value="" style="shape=stencil(fZLdDoMgDIWfhtsGW0S8dtt7mIiTzIlR9/f2kxE3cZG7cnq+lrRlVIxN2WuGfJwGe9EPU00NowNDNF2jBzPNEaMjo6K2gz4P9tZV/t2Xzumiq727Ck/PIWDuIOQvLyScA+cf6eSB1nQr4JtdgFyAzPb9CoQM/EpE6yOBEgGQCVByHyCCJASkjHYQKaRZAKQUBWSy7SDiM1J/AMa/tBr6Qmw7zMFvh7VpW38C6/x257Pk74WObw==);fillColor=none;" vertex="1" parent="1">
                    <mxGeometry x="465.3333333333335" y="162.5" width="29.166666666666515" height="12.5" as="geometry"/>
                </mxCell>
                <mxCell id="27" value="" style="shape=stencil(fdHNDoMgDADgp+HaAAXBs9vew0ScZE6Mur+3H4S4iRm7ldKvkJZgNXf1aAin8zK5i3nYZukIHgjndujMZBcfETwSrFo3mfPkbkMTz2MdKkN0dffQ4RkdBUoD4vQVE4x+UqcIejtsgALBElAK0CpfzwUUZQK0WjM/gUBQIgGFAop5IBlwTID8/4LvJ9IviQKYzAMtgaWAI1CdB5shrmI/VR98d9Lavo8r3d7vd+hTcf94fAM=);fillColor=none;" vertex="1" parent="1">
                    <mxGeometry x="475" y="130.5" width="40.5" height="6.5" as="geometry"/>
                </mxCell>
                <mxCell id="28" value="" style="shape=stencil(lZLdDoMgDIWfhtsG2opw7dx7LJmbZE6Nur+3n47sR4kkuyvlfKSHHkFZX+7aQqDsh645FTe3H0pBG4Ho6rLo3DBWgnJB2aHpimPXXOq9P7e7STlV5+Y6vXD3HCMYPVEoH74jQcpXY+v1lat/9KkCppmeAM26XsnPe28gBZP+BSgDGCGsXo6EDCoyUwjQaCJi2gafxATM64BBUDwDEgaL64BmQDsDdAI24iHcW2pA23UAg8UZCxTxEK5BLqMxFt9cHVxV+Vj+3i9zOLZ8hil/Ag==);fillColor=none;" vertex="1" parent="1">
                    <mxGeometry x="534.5" y="146" width="3.5" height="30.5" as="geometry"/>
                </mxCell>
                <mxCell id="36" value="" style="shape=stencil(hZPbkoIwDIafpreZNukBrj28BzOidERwEN3dt99iRyU4xruQ/h9J/zSKVpemOtcK9WUc+mP9E3djo2itEGPX1EMcU6Roo2i174f6MPTXbpe/z9WknKJTf5v+8Js5AucmCPVfThitQet7apuBNnYzwAARA0pZ/zx96AtZj+C53gcw9rPeAyHXf+nfgOYXsAGcBHgouEUkA2iXFpHcEhHYggHoRMASBMsBuYKzb2P2gE5wNQHcVpNqCkBAKHhLBkWX0jNYDO4bUAJyl9IoffgMlB4MryC7Onv5D2Dpagpei7SPbZv3cH6+XLyUyktLm38=);fillColor=none;" vertex="1" parent="1">
                    <mxGeometry x="526.4000000000001" y="157" width="45.09999999999991" height="10" as="geometry"/>
                </mxCell>
                <mxCell id="39" value="" style="shape=stencil(lZLLDoMgEEW/hu1kgPJwbdv/MBErqRWD9vX3lZK24oLU3XCHwx3gEl6ObTUYwnCcvDubu62nlvA9Ycz2rfF2mivCD4SXjfPm5N21r+N6qMLOUF3cLZzwiJwC1AFi+IwCRQTEt3SMQGf7BfDt/g8ougmgEui2mZhYD6UViAzAJbDUQomsw06DLhJAsqyDLAB5Aoj8HbQElQIsP9LiUT7E2mEufv/e2K6LsVn21zmZpZgxfngB);fillColor=none;" vertex="1" parent="1">
                    <mxGeometry x="388.6666666666665" y="156" width="18.833333333333485" height="1" as="geometry"/>
                </mxCell>
                <mxCell id="42" value="" style="shape=stencil(lZTbboMwDIafJrdWYud43XXvUal0RGNQUbrD2y8s0lbwsMSdCZ+d345tRYdbe7o2CvVtGofX5iOfp1bRk0LMfduMeSqWoqOiw2UYm5dxuPfn+n09zeRsvQ3vc4TP6me0Bq1nN9Rf9cgC+Z+D5+rQ5f7BIXrwYcETWBJ4Ft+AFnjvIJgF/xvgf57F14ACbwO4NR/TNk+MR/C4zSPjS0J2mzeMNxqcIMjwgnqwggNPgECHPXwC73bw5AGFjBlvCYygx7EGTWCN8ALsASwkQT+rpyvxhQlgvC8TI+jhfIS4R39ASHvqEwIYYcJ4A5UZRaFAPINIQIIi4g5yi1qWcyw9J0yxY0knlNdKUUxLByu+cuA3BEDhhsTnUq9XVzH+FvEld13d44//14u7HNWlT8dv);fillColor=none;" vertex="1" parent="1">
                    <mxGeometry x="396" y="143.42857142857144" width="5" height="36.071428571428555" as="geometry"/>
                </mxCell>
                <mxCell id="48" value="" style="shape=stencil(nVrJclw3DPyaubK4L2fH+Q9XWY5UUSSXLGf5+wCZImfY5OtXyk0LwMcFQDeavIRPPx6/fH+4ePvj/e3194e/nr6+P17CLxfvn14eH96e3uWnS/h8CZ++vb49/Pb2+vPl6/X371/UUn/64/VPHeHvq18qJhb18vaf619cNrH995dfrw7PTy+zg4+zQzTRUgcbZodgrCMO2eQ8Ozg+pWzc7NBMi8Q+meQm+2piIPbRlNlelsTmE0yuk30yNRN735fX7aNpbHyH640mkPFjw/lEY8mJxWrcfMTBVLKfMZuUwL4UYh9NtWCfyXqjN7WCfWLrtaahPYvQ0Iz1YB9IPIT8wfFlvbg/mexn8KbMGSPnxeytiQ7sqz+2l3B3c84n00hC6r/n9RYTyHx0eZiPlpyXdz18R8LbHiFbB9eMg5Lie0rvHdYaFHuM7x1GBg6HZEoiDgFzRr7p2Bpk0fCFanw9dmj9TId965V4a1+xsHtLs17q+mKfyXyk6M7z12MkUZeMd2jfyI7GZfzQR9hngXFzkskMLRnfYxLIDmcyf1ndPP8gVY5EtcUkCLWn6YE97H+UKkeqojUOinrrO3ZgH+cAFRhkWemMn+Mt2x5RB/uZ5hTL0SSGMibMIJArRdWM8VwcrUK1R9ewj3R/JCEBJYsQEbJgqREJZlRNZV8oJs1fqJamgMbQ/IXqKRLfgHo4xI7Ne4fSc2Q4ZHoKgjUe1lAoGIeBdcOh8S8IugJ62DO4h8xpjvOV0OnhcPCUMMbS+dtwEEQmoSEMDYp1k/LHKGDqjGk4CKli1bQhJ22Flq8sHGU+uFZ7Rdg7FETl1igN0XxM6ODJSZcFZNWBQVTFjJM1BBLeki7W4bY2Amo1ISrLSTdy0rVieEssBbIGic08f0GGYMEnEwiQcbHXkb1DXuqSbCvZJd3EuRSXwB1ar7yjdpfekhw5VAAHSym/OEDlk6aqknNoo/QOOMz04CRdoGnROkLwWTK4QNcSaR/bAh6cYFJmoSF7AhQm9CzfB1/BRlY5IXMYZeuO1npSNQSgkKW63szsU3SUrTvuz+w90qpMWY+SBKBJ3F52EGikabyuQli4zuOOCneco8Ly8R0GhaVHLNAD+ynNPxlfsA3bhF73j8ATUtmbSMYPkujYaxbWKwvBQO2hsF62dFJ6Z89666WziyafzMeDfTqZD66XaUU7e9YV7eZDu5zSMfhmz+Jht5+M9Ychbd3Z8/U6nD/VKgr2yZGzwbJqXY6UdbXHePMftA8kX3b2TJtUe6xXDAPUPqH9yXxw/8tJPOD5fjgfT8bH82X1c5uP/LzWfPygPWOMO3umsuzqjzsZH8/X8vNd6udJfn3IXus/4gXFowVfBL8YviwUxVJ82eEjU60Uf3F8Vj8V3zPYsxZc+ANo1Z4SppuIcaedsx7II/4m01gLtGjtlWr/QuAiKJ+OUvUasaA4jpBKQoFTVuogNLfMX5A9Yt20EGmUMgu9IBGqXhetjlUJ7Z3h1Bq9wmhtSWMuFmkHNDukwUz3YpEdgX/XM1XW9zW8RsqFij8qAMwHIX0fS+aWsSsrjXYD0ruC6CgNtid0QrrjsqhFTNbQ/htkDU9jQyYAi5ZoYSenGsKcQRotZJdUpYApnfRAOx2EXcjclM+RcpaXya2Yw3A/LzknDuzGRAWpOVxVVmCVPnX5/G5fWWlVUQ3EnNSlwkPZDrSZyC8mg2lw1PymTiUDWIPn7URepEdHhUGVT+dwlYRgdSMsU5IUYV/wC4OpmX5BEQ2uzxOVi1TGhqQO/bLgUCgHkHP0HG4QdVeYmEbmHE6pFI6jHZWHfaR6VEZaIkBP79yX25ZKebbHKpbPbnNANlEwITu6aOqSrkyaXcBKb6NITNh+OTrsQ1eaDuyBRoZKOYPDtksSKbA7bsRz3+j1bVjsE2UYEW+sPS8UCdtMvY9jPBXbZE06Ej/rK57GhXEEcrGnMjfKbiek0K1vAArP4IBClD5cYhfuES8E3UnKFIxp+WZkbwAaBrUbkLUPOrc0X7av6qj0ZqjVtGr5hHdpmdZRv7z8SVyNWuThEzXKI/UP9A53fTnjO0IfwiukDVcPl5c/nqqH68si/8GXS57y5fVlFCez+vIKHhnQkN697HJsvW3pi+iNnr5Mw5dRVD1fHg1EPn7Al1GjTu7tY+9nbvFPX/qlLs4N2KYJnPJy9UzzMeWlLFp6S5UKvoJxEnFsRgWJgeMCqzjga8tMFdatA73b3jnQXdo5sMKrDgkdKLoWpH/iwOAyFaThjvf74pAaOjBhLa0ySqY3K2khyerA14BXSZlWL3WwiwPf1rgsmoH4/3l9fOYgP9weO397en6+vpW+/z8+jpY/XR9Wh8//Ag==);lineShape=1;" vertex="1" parent="1">
                    <mxGeometry y="60" width="667.1" height="177.61" as="geometry"/>
                </mxCell>
            </root>
        </mxGraphModel>
    </diagram>
</mxfile>